<svg xmlns="http://www.w3.org/2000/svg" width="800.036" height="340.246">
    <defs>
        <style>
            .cls-1{fill:#4dd290}.cls-2{fill:#46926c}.cls-3{stroke:transparent}.cls-4{fill:#fff}.cls-4,.cls-5,.cls-6{stroke:#000}.cls-4,.cls-5,.cls-6,.cls-8{stroke-miterlimit:10}.cls-5{fill:#f1f1f1}.cls-6,.cls-8{fill:none}.cls-8{stroke:#f1f1f1}
        </style>
    </defs>
    <g id="그룹_1659" data-name="그룹 1659" transform="translate(-1119.964 -171.754)">
        <g id="그룹_1539" data-name="그룹 1539" transform="translate(-57)">
            <circle id="타원_260" data-name="타원 260" class="cls-1" cx="145" cy="145" r="145" transform="translate(1207 222)"/>
            <path id="사각형_3280" data-name="사각형 3280" class="cls-1" transform="translate(1352 222)" d="M0 0h625v290H0z"/>
        </g>
        <path id="패스_961" data-name="패스 961" class="cls-2" d="m-2806.607 2728.142 116.313-83.291s34.5 62.959-19.563 99.239-96.75-15.948-96.75-15.948z" transform="translate(3926.571 -2303.018)"/>
        <path id="패스_960" data-name="패스 960" class="cls-2" d="m-2600.662 2563.979-2.462-92.207s-45.967 3.282-69.771 33.106-23.531 68.951-23.531 68.951z" transform="translate(3926.571 -2300.018)"/>
        <g id="그룹_1530" data-name="그룹 1530" transform="translate(3835.571 -2304.017)">
            <g id="그룹_1531" data-name="그룹 1531" transform="translate(90)">
                <path id="패스_874" data-name="패스 874" class="cls-3" d="M-2853.539 2543.222s2.462-18.222 22.654-18.222 13.789 9.357 29.549 11.819 12.312-4.925 25.116-3.447 19.7 14.774 29.549 18.221 29.549 10.835 20.685 37.429c-12.8 25.117-35.951 3.939-40.384-.985s-21.669-4.432-29.056-8.372-12.312-14.282-21.177-14.282-10.834.492-13.789-1.478-18.714-6.894-23.147-20.683z" transform="translate(313 -25.122)"/>
                <path id="패스_875" data-name="패스 875" class="cls-4" d="M-2651.481 2555.7s1.478-6.894 11.328-5.417 12.8 9.357 14.774 9.85a4.641 4.641 0 0 1 2.955 6.894c-1.97 3.94-4.925.985-5.91 2.462s2.463 22.162 2.463 22.162l-16.745-2.955H-2650l-.985-11.82s-1.481-13.293-.496-21.176z" transform="translate(108.407 -37.85)"/>
                <path id="패스_876" data-name="패스 876" class="cls-3" d="M-2665.278 2665.912s.492-41.861 16.744-46.293 30.534-1.97 36.936 20.685 0 38.413 0 38.413-30.533 1.476-53.68-12.805z" transform="translate(101.954 -72.216)"/>
                <path id="패스_877" data-name="패스 877" class="cls-3" d="m-2610.518 2661.906-19.7-17.237s7.88-14.775 14.774-15.267 11.328.985 14.282 2.955a13.033 13.033 0 0 1 4.925 13.3c-1.477 5.906-8.863 13.293-14.281 16.249z" transform="translate(71.372 -78.06)"/>
                <path id="패스_878" data-name="패스 878" class="cls-5" d="m-2550.169 2727.374-14.867 175.573-94.463-8.13 55.65-181.15z" transform="translate(39.659 -120.874)"/>
                <path id="패스_879" data-name="패스 879" class="cls-6" d="M-2584.026 2840.4s-5.91-.985-8.373 3.448-26.1 91.6-26.1 91.6" transform="translate(53.499 -185.148)"/>
                <path id="패스_881" data-name="패스 881" class="cls-5" d="m-2813.342 3103.977-5.91 29.549h-46.293l-2.955-31.026z" transform="translate(410.976 -318.215)"/>
                <path id="사각형_3272" data-name="사각형 3272" class="cls-5" transform="translate(-2459.885 2779.853)" d="M0 0h61.068v6.402H0z"/>
                <path id="패스_882" data-name="패스 882" class="cls-5" d="M-2545.715 2932.5s10.835 11.326 10.835 18.222-13.3 37.921-11.327 40.875 39.4 4.433 39.4 4.433l.985 29.056s-67.962.985-75.349-1.969-9.358-13.79-8.865-23.639-2.463-39.4-2.463-39.4z" transform="translate(-40.832 -231.936)"/>
                <path id="패스_883" data-name="패스 883" class="cls-3" d="M-2511.5 2886.628a197.7 197.7 0 0 0 28.564-25.117c14.282-15.266 40.383.985 56.143 32.012l-46.786 27.579-37.921-12.8z" transform="translate(-159.508 -192.96)"/>
                <path id="패스_885" data-name="패스 885" class="cls-6" d="m-2604.515 3120.5 6.4 8.864-7.387 6.4" transform="translate(61.276 -327.35)"/>
                <path id="패스_886" data-name="패스 886" class="cls-6" d="M-2648.5 3068.5h8.865v47.771" transform="translate(124.828 -300.959)"/>
                <path id="패스_887" data-name="패스 887" class="cls-3" d="M-2825.6 2958.465s27.5-48.263 14.692-54.665c-5.417-1.97-14.775 7.879-14.775 7.879s19.7-47.278 8.865-52.2-15.267 14.775-15.267 14.775-.985-48.264-15.267-46.786-11.82 56.636-11.82 56.636-5.91-20.192-13.789-16.252.985 48.756.985 48.756-12.312-19.207-17.73-11.327 22.572 53.188 22.572 53.188z" transform="translate(416.177 -178.612)"/>
                <path id="패스_889" data-name="패스 889" d="M-2275.832 3000.253q-7.132-.078-14.256.412a.492.492 0 0 0-.31.094.5.5 0 0 0-.1.395l.052 1.362a3.093 3.093 0 0 0 .54 1.979c.772.872 2.165.6 3.3.853l11.141-1.532z" transform="translate(-423.032 -266.317)" style="fill:#fff;stroke:transparent"/>
                <path id="선_230" data-name="선 230" class="cls-8" transform="translate(-2430.386 2665.844)" d="M0 0v114.009"/>
                <path id="선_231" data-name="선 231" class="cls-8" transform="translate(-2451.489 2708.936)" d="m0 0 21.177 41.368"/>
                <path id="선_232" data-name="선 232" class="cls-8" transform="translate(-2429.38 2743.902)" d="M22.654 0 0 24.624"/>
                <path id="패스_890" data-name="패스 890" d="m-2397.022 2831.747-13.813-13.888s6.895-5.91 2.462-9.85-9.357 4.925-9.357 4.925-16.252-12.312-20.684-3.94 15.828 32.572 15.828 32.572z" transform="translate(-225.755 -167.774)" style="stroke:#000;fill:#fff"/>
                <path id="패스_891" data-name="패스 891" class="cls-3" d="M-2382.712 2800.217s-9.357-9.85-16.252-8.373-9.85 4.925-10.342 9.85 13.79 9.357 13.79 9.357l7.88-.985 5.081-10.26" transform="translate(-255.208 -160.474)"/>
                <path id="패스_888" data-name="패스 888" d="M-2311.546 2978.7a51.3 51.3 0 0 0-10.765 1.334 1.264 1.264 0 0 0-.619.271 1.13 1.13 0 0 0-.268.587 5.035 5.035 0 0 0-.077 1.689 1.471 1.471 0 0 0 .251.737 1.747 1.747 0 0 0 1.61.367l24.547-2.755a24.938 24.938 0 0 0 3.308-.523l-4.259-20.223q-5.321-3.216-10.423-6.778c-1.907-1.332-3.877-2.736-6.171-3.118a.848.848 0 0 0-.467.014.786.786 0 0 0-.376.456 3.823 3.823 0 0 0 .093 2.859 9.467 9.467 0 0 0 1.591 2.449 37.546 37.546 0 0 0 4.507 4.569l-.452.027c-.2.3-.074.719-.233 1.042-.2.4-.731.484-1.181.51q-4.916.286-9.84.353a13.3 13.3 0 0 0-5.592.861 1.074 1.074 0 0 0-.44.322 1.183 1.183 0 0 0-.156.438 8.483 8.483 0 0 0-.216 3.81l.972.8 13.545.521-6.7-.345c-1.862-.1-3.725-.192-5.591-.2a10.97 10.97 0 0 0-3.079.3 19.589 19.589 0 0 0 2.219 4.925" transform="translate(-385.07 -240.952)" style="stroke:#fff;stroke-miterlimit:10;fill:#fff"/>
                <path id="패스_880" data-name="패스 880" class="cls-4" d="M-2497.431 2652.855s-10.342 10.341-23.147 13.3-33.488-21.176-49.741-24.131-17.237-7.387-17.237-7.387l9.85-.985s-13.3 1.478-15.267 1.478-5.417-.985-7.387-1.478 17.236-10.341 33.489-8.372c0 0-4.432-10.342-1.97-13.3s7.88 7.88 11.819 10.834 28.072 17.237 35.951 18.222a15.427 15.427 0 0 0 5.91-3.447c2.461-2.464 17.73 15.266 17.73 15.266z" transform="translate(-43.371 -69.009)"/>
                <path id="패스_884" data-name="패스 884" class="cls-3" d="M-2412.714 2912.936s-1.477-17.729-.985-21.176 5.417-9.358 13.3-8.373 11.327 3.448 13.789 11.82 2.955 31.519 1.478 34.966-6.895 10.835-57.62 16.252l-4.432-20.192s32.5-5.417 34.47-13.297z" transform="translate(-234.672 -206.955)"/>
            </g>
        </g>
    </g>
</svg>
