<svg xmlns="http://www.w3.org/2000/svg" width="18.252" height="19.98">
    <defs>
        <style>
            .cls-1{fill:#fff}
        </style>
    </defs>
    <g id="그룹_1629" data-name="그룹 1629" transform="translate(-1298.514 350.603)">
        <path id="패스_938" data-name="패스 938" class="cls-1" d="M1305.7-337.012a.439.439 0 0 0-.122-.072c-.367-.06-.737-.1-1.1-.175a5.554 5.554 0 0 1-.669-.2 8.467 8.467 0 0 1-.822-.295 5.7 5.7 0 0 1-.8-.438 4.277 4.277 0 0 1-.776-.6 4.178 4.178 0 0 1-.908-1.273c-.127-.317-.268-.627-.39-.946a3.536 3.536 0 0 1-.113-.453 5.918 5.918 0 0 1-.214-1.423c0-.348.005-.7 0-1.044a3.5 3.5 0 0 1 .233-1.177 4.076 4.076 0 0 1 .293-.76c.208-.361.463-.695.694-1.043a.351.351 0 0 0 .084-.206c-.034-.209-.095-.414-.147-.62a1.021 1.021 0 0 1-.042-.13 4.518 4.518 0 0 1 0-1.328 10.667 10.667 0 0 1 .359-1.265.3.3 0 0 1 .233-.132 2.082 2.082 0 0 1 .9.136c.212.094.446.139.665.221a7.587 7.587 0 0 1 1.639.871.645.645 0 0 0 .629.068c.14-.05.3-.052.441-.088a6.781 6.781 0 0 1 1.68-.226c.552 0 1.1-.011 1.655.005a9.56 9.56 0 0 1 1.172.1 7.812 7.812 0 0 1 .979.242.857.857 0 0 0 .7-.163c.206-.12.406-.251.617-.363a7.94 7.94 0 0 1 .867-.428 5 5 0 0 1 1.442-.381.4.4 0 0 1 .453.294 5.753 5.753 0 0 1 .33 1.6 2.981 2.981 0 0 1-.142 1.175 1.669 1.669 0 0 0-.094.4.27.27 0 0 0 .065.191 4.623 4.623 0 0 1 .994 1.726 5.109 5.109 0 0 1 .246 2.313c-.045.343-.039.695-.1 1.033a6.237 6.237 0 0 1-.307 1.1 7.056 7.056 0 0 1-.607 1.253 5.905 5.905 0 0 1-.79.875 4.635 4.635 0 0 1-1.434.906 6.146 6.146 0 0 1-1.108.357c-.478.116-.966.192-1.449.289a.183.183 0 0 0-.075.041c.155.278.309.537.447.8a3.476 3.476 0 0 1 .292 1.671q-.008 1.615 0 3.231a.254.254 0 0 1-.228.294 13.2 13.2 0 0 1-2.283.384 12.5 12.5 0 0 1-2.787-.086c-.394-.058-.783-.154-1.176-.225a.218.218 0 0 1-.2-.256v-1.931c0-.3-.181-.4-.456-.271a.744.744 0 0 1-.294.08 8.55 8.55 0 0 1-1.093 0 3.758 3.758 0 0 1-1.375-.392 2.468 2.468 0 0 1-1.216-1.329 4.685 4.685 0 0 0-.486-.9 2.921 2.921 0 0 0-1.106-1.056.822.822 0 0 1-.274-.247c-.186-.25-.095-.466.218-.494a2.136 2.136 0 0 1 1.568.461 5.36 5.36 0 0 1 1.01 1.2 2.613 2.613 0 0 0 1.115.889 3.479 3.479 0 0 0 1.554.158 1.123 1.123 0 0 0 .283-.107 4.947 4.947 0 0 0 .48-.156.3.3 0 0 0 .143-.195 3.74 3.74 0 0 1 .6-1.38.662.662 0 0 1 .103-.11zm-1.108 2.484.236-.226c-.064-.043-.139-.132-.189-.119a.86.86 0 0 0-.246.164zm-1 .147.22-.215c-.066-.047-.133-.132-.2-.13s-.15.079-.224.124zm-1.752-.875a2.029 2.029 0 0 0-.286-.209c-.021-.01-.09.075-.137.116l.252.272zm.883.56c-.016-.214-.143-.2-.249-.193-.061.007-.116.065-.174.1a1.448 1.448 0 0 0 .275.181c.032.015.105-.064.142-.092zm-1.889-1.538c-.017.073-.067.164-.042.2a.835.835 0 0 0 .232.172.247.247 0 0 0 .068-.1c.028-.177-.113-.207-.263-.272zm-.191-.477a2.143 2.143 0 0 0-.27-.173c-.021-.009-.072.048-.11.074a1.962 1.962 0 0 0 .2.2c.011.015.079-.042.175-.1zm-.7-.461.034-.079-.19-.09c-.008.034-.029.092-.021.1a1.408 1.408 0 0 0 .169.07z"/>
        <path id="패스_939" data-name="패스 939" class="cls-1" d="m1447.815 48.881-.2-.181a.862.862 0 0 1 .246-.164c.05-.013.125.076.189.119z" transform="translate(-143.227 -383.409)"/>
        <path id="패스_940" data-name="패스 940" class="cls-1" d="m1422.315 52.64-.2-.221c.075-.045.149-.122.224-.124s.132.084.2.13z" transform="translate(-118.729 -387.022)"/>
        <path id="패스_941" data-name="패스 941" class="cls-1" d="m1372.468 33.729-.171.179-.252-.272c.047-.041.116-.127.137-.116a2.038 2.038 0 0 1 .286.209z" transform="translate(-70.634 -368.986)"/>
        <path id="패스_942" data-name="패스 942" class="cls-1" d="M1394.877 48.235c-.037.024-.11.1-.147.089a1.442 1.442 0 0 1-.275-.181c.058-.035.113-.094.174-.1.104-.012.232-.022.248.192z" transform="translate(-92.16 -382.931)"/>
        <path id="패스_943" data-name="패스 943" class="cls-1" d="M1356.066 14.036c.15.065.291.1.259.273a.247.247 0 0 1-.068.1.837.837 0 0 1-.232-.172c-.025-.037.024-.128.041-.201z" transform="translate(-55.237 -350.27)"/>
        <path id="패스_944" data-name="패스 944" class="cls-1" d="M1343.17-2.292c-.1.058-.164.116-.177.1a1.94 1.94 0 0 1-.2-.2c.037-.026.088-.084.11-.074a2.138 2.138 0 0 1 .267.174z" transform="translate(-42.532 -334.418)"/>
        <path id="패스_945" data-name="패스 945" class="cls-1" d="M1330.207-13.866a1.4 1.4 0 0 1-.177-.072c-.008 0 .013-.063.021-.1l.19.09z" transform="translate(-30.272 -323.305)"/>
    </g>
</svg>
