<svg xmlns="http://www.w3.org/2000/svg" width="16.288" height="16.29">
    <g data-name="그룹 1642">
        <g data-name="그룹 1638">
            <path data-name="패스 950" d="M2013.905 16.338a8.136 8.136 0 0 1-7.189-4.314l2.728-1.456a5.055 5.055 0 0 0 7.716 1.49l1.993 2.364a8.151 8.151 0 0 1-5.248 1.916z" transform="translate(-2005.76 -.048)" style="fill:#34a853"/>
        </g>
        <g data-name="그룹 1639">
            <path data-name="패스 951" d="m2012.142-364.761-2.7-1.509a8.158 8.158 0 0 1 7.114-4.176 8.122 8.122 0 0 1 5.513 2.15l-2.094 2.276a5.037 5.037 0 0 0-3.42-1.333 5.063 5.063 0 0 0-4.413 2.592z" transform="translate(-2008.412 370.446)" style="fill:#ea4335"/>
        </g>
        <g data-name="그룹 1640">
            <path data-name="패스 952" d="m2282.807-123.671-1.993-2.364a5.049 5.049 0 0 0 1.556-2.319h-4.512v-3.092h7.846v1.546a8.133 8.133 0 0 1-2.897 6.229z" transform="translate(-2269.416 138.045)" style="fill:#4285f4"/>
        </g>
        <g data-name="그룹 1641">
            <path data-name="패스 953" d="M1973.056-211.391a8.162 8.162 0 0 1-.956-3.831 8.151 8.151 0 0 1 1.031-3.969l2.7 1.509a5.054 5.054 0 0 0-.638 2.46 4.989 4.989 0 0 0 .591 2.375z" transform="translate(-1972.1 223.367)" style="fill:#fbbc05"/>
        </g>
    </g>
</svg>
