<svg xmlns="http://www.w3.org/2000/svg" width="15.879" height="12.703">
    <path data-name="Icon awesome-crown" d="M13.1 11.115H2.779a.4.4 0 0 0-.4.4v.794a.4.4 0 0 0 .4.4H13.1a.4.4 0 0 0 .4-.4v-.794a.4.4 0 0 0-.4-.4zm1.588-7.939A1.191 1.191 0 0 0 13.5 4.367a1.167 1.167 0 0 0 .109.491l-1.8 1.077a.793.793 0 0 1-1.1-.288L8.691 2.109a1.191 1.191 0 1 0-1.5 0L5.166 5.647a.793.793 0 0 1-1.1.288L2.275 4.858a1.191 1.191 0 1 0-1.084.7 1.216 1.216 0 0 0 .191-.02l1.794 4.784H12.7l1.8-4.784a1.216 1.216 0 0 0 .191.02 1.191 1.191 0 0 0 0-2.382z" style="fill:#4dd290"/>
</svg>
