<svg xmlns="http://www.w3.org/2000/svg" width="16.331" height="14.08">
    <path data-name="패스 805" d="M76.188 1169.956a10.666 10.666 0 0 1 1.074-1.592 3.464 3.464 0 0 1 3.75-.945 3.666 3.666 0 0 1 2.572 3.031 5.132 5.132 0 0 1-.981 3.828 16.771 16.771 0 0 1-4.527 4.379c-.49.347-1 .661-1.506.992a.5.5 0 0 1-.6.048 20.857 20.857 0 0 1-5.661-4.793 6.092 6.092 0 0 1-1.484-4.031 3.856 3.856 0 0 1 2.892-3.541 3.628 3.628 0 0 1 4.145 1.923c.131.252.238.513.326.701z" transform="translate(-68.074 -1166.452)" style="fill:none;stroke:#868686;stroke-width:1.5px"/>
</svg>
