<svg xmlns="http://www.w3.org/2000/svg" width="103.807" height="36.308">
    <defs>
        <style>
            .cls-1{fill:#4dd290}
        </style>
    </defs>
    <g id="그룹_1600" data-name="그룹 1600" transform="translate(-370.703 -168.113)">
        <path id="패스_923" data-name="패스 923" class="cls-1" d="M391.676 204.364c-2.065-.189-1.139-2.56-1.139-2.56a34.733 34.733 0 0 0 1-3.4 22.087 22.087 0 0 1-1.8 1.483 10.884 10.884 0 0 1-2.167 1.226 13.886 13.886 0 0 1-2.78.835 18.75 18.75 0 0 1-3.624.311 9.5 9.5 0 0 1-4.326-.968 10.191 10.191 0 0 1-3.3-2.611 11.838 11.838 0 0 1-2.105-3.819 14.16 14.16 0 0 1-.737-4.574 23.523 23.523 0 0 1 .755-6.013 23.936 23.936 0 0 1 2.087-5.33 22.706 22.706 0 0 1 3.144-4.459 21.473 21.473 0 0 1 3.908-3.411 18.238 18.238 0 0 1 4.4-2.185 14.4 14.4 0 0 1 4.61-.773 7.926 7.926 0 0 1 2.638.426 5.491 5.491 0 0 1 2.114 1.332 6.248 6.248 0 0 1 1.4 2.292 9.642 9.642 0 0 1 .506 3.3 6.322 6.322 0 0 1-.178 1.483 6.043 6.043 0 0 1-.586 1.483 4.226 4.226 0 0 1-1.1 1.181 1.872 1.872 0 0 1-1.012.347 1.3 1.3 0 0 1-.693-.2 1.9 1.9 0 0 1-.551-.515 2.649 2.649 0 0 1-.364-.719 2.6 2.6 0 0 1-.133-.826 2.068 2.068 0 0 1 .107-.657q.107-.32.222-.64t.222-.666a2.432 2.432 0 0 0 .107-.72 3.935 3.935 0 0 0-.782-2.665 2.5 2.5 0 0 0-1.954-.888 8.641 8.641 0 0 0-3.029.6 12.834 12.834 0 0 0-3.118 1.723 16.947 16.947 0 0 0-2.9 2.771 18.87 18.87 0 0 0-2.425 3.757 22.088 22.088 0 0 0-1.661 4.663 23.4 23.4 0 0 0-.613 5.48 10.1 10.1 0 0 0 .453 3.189 6.164 6.164 0 0 0 1.288 2.265 5.14 5.14 0 0 0 2.043 1.35 7.831 7.831 0 0 0 2.718.444 16.9 16.9 0 0 0 5.169-.755 18 18 0 0 0 4.441-2.123q.142-.533.249-1.021a4.228 4.228 0 0 0 .107-.9 2.065 2.065 0 0 0-.142-.844 1.036 1.036 0 0 0-.382-.462 1.323 1.323 0 0 0-.568-.187 6.591 6.591 0 0 0-.7-.035 3.564 3.564 0 0 1-1.181-.178 2.9 2.9 0 0 1-.862-.462 1.863 1.863 0 0 1-.533-.657 1.721 1.721 0 0 1-.178-.746 1.621 1.621 0 0 1 .169-.719 1.7 1.7 0 0 1 .524-.613 2.948 2.948 0 0 1 .9-.435 4.292 4.292 0 0 1 1.27-.169 9.481 9.481 0 0 1 2.834.355 3.909 3.909 0 0 1 1.741 1.048 3.776 3.776 0 0 1 .87 1.7 9.857 9.857 0 0 1 .24 2.283 39.877 39.877 0 0 1-.24 4.281 21.133 21.133 0 0 1-.773 4.352c-.994 3.01-1.535 3.134-3.6 2.945z"/>
        <path id="패스_924" data-name="패스 924" class="cls-1" d="M566.31 288.493c-1.162 6.62-7.526 8.789-7.526 8.789a9.329 9.329 0 0 1-2.1.24 6.654 6.654 0 0 1-2.922-.6 6.037 6.037 0 0 1-2.087-1.626 6.946 6.946 0 0 1-1.252-2.363 9.411 9.411 0 0 1-.417-2.816 12.543 12.543 0 0 1 .791-4.281 11.4 11.4 0 0 1 1-2.034 8.082 8.082 0 0 1 1.412-1.705 6.527 6.527 0 0 1 1.812-1.172 5.547 5.547 0 0 1 2.23-.435 5.221 5.221 0 0 1 1.847.32 4.523 4.523 0 0 1 1.483.9 4.065 4.065 0 0 1 .986 1.394 4.547 4.547 0 0 1 .355 1.83 4.952 4.952 0 0 1-.542 2.2 8.027 8.027 0 0 1-1.5 2.078 10.587 10.587 0 0 1-2.283 1.741 12.2 12.2 0 0 1-2.869 1.19 5.658 5.658 0 0 0 .524.8 2.382 2.382 0 0 0 .524.5 1.738 1.738 0 0 0 .56.249 2.67 2.67 0 0 0 .631.071 6.623 6.623 0 0 0 2.247-.426 11.58 11.58 0 0 0 6.038-8.781m2.356 7.271-13.288-2.647a3.517 3.517 0 0 0 1.395-.329 6.26 6.26 0 0 0 1.4-.844 5.9 5.9 0 0 0 1.092-1.119 1.991 1.991 0 0 0 .444-1.172 2.635 2.635 0 0 0-.293-1.315.843.843 0 0 0-.719-.515 2.783 2.783 0 0 0-1.306.284 2.834 2.834 0 0 0-.906.737 3.822 3.822 0 0 0-.586 1.03 6.98 6.98 0 0 0-.338 1.164 8.781 8.781 0 0 0-.151 1.137q-.035.543-.035.934z" transform="translate(-152.117 -95.337)"/>
        <path id="패스_925" data-name="패스 925" class="cls-1" d="M640.162 208.222c.253 1.718-4.01 4.242-4.01 4.242q-1.333.746-2.372 1.244a13.687 13.687 0 0 1-1.847.746 5.027 5.027 0 0 1-1.466.249 3.721 3.721 0 0 1-2.38-.817 6.159 6.159 0 0 1-1.723-2.354 14.68 14.68 0 0 1-1.039-3.722 31.6 31.6 0 0 1-.346-4.921q0-1.066.089-2.274t.249-2.4q-.533-.071-.826-.133t-.622-.124q-.329-.062-.835-.133t-1.466-.178a1.564 1.564 0 0 1-.657-.2.959.959 0 0 1-.338-.355 1.1 1.1 0 0 1-.124-.426q-.017-.222-.018-.382a.587.587 0 0 1 .346-.542 2.861 2.861 0 0 1 .888-.275 8.077 8.077 0 0 1 1.19-.1q.648-.009 1.243.009t1.066.027a3.536 3.536 0 0 0 .648-.027 40.088 40.088 0 0 1 1.217-4.646 26.384 26.384 0 0 1 1.652-4 11.026 11.026 0 0 1 2-2.807 3.245 3.245 0 0 1 2.274-1.057 1.21 1.21 0 0 1 1.169 1.57 7.806 7.806 0 0 1-1.68 3.433 17.439 17.439 0 0 0-2.142 4.737c-.255 1.019-.527 1.949-.74 2.908.178.024 0 .044.178.062l3.464.382q.16.018.533.027t.862.027q.488.018 1.057.044t1.1.044l.995.036q.462.018.764.035a.57.57 0 0 1 .515.355 2 2 0 0 1 .16.853 1.447 1.447 0 0 1-.355 1.013 1.045 1.045 0 0 1-.782.391h-8.774a22.325 22.325 0 0 0 .043 9.618 2.568 2.568 0 0 0 .515 1.075 1.933 1.933 0 0 0 .826.6 3.043 3.043 0 0 0 1.093.186 3.2 3.2 0 0 0 .933-.178 10.227 10.227 0 0 0 1.226-.488q.666-.311 1.4-.737a9.964 9.964 0 0 0 1.464-1.215c2.078-1.879 3.13-1.144 3.383.578z" transform="translate(-211.87 -12.518)"/>
        <g id="그룹_1599" data-name="그룹 1599" transform="translate(433.535 173.765)">
            <path id="패스_926" data-name="패스 926" class="cls-1" d="M790 210.725c-.288.1-.525.067-.553-.669a2.82 2.82 0 0 1 1.136-2.433 6.289 6.289 0 0 1 1.117-.707 10.128 10.128 0 0 1 1.761-.671 19.5 19.5 0 0 1 2.517-.533 30.243 30.243 0 0 1 3.369-.294 17.868 17.868 0 0 1 2.581.045 4.956 4.956 0 0 1 1.406.324 1.064 1.064 0 0 1 .6.521 1.88 1.88 0 0 1 .132.621 2.536 2.536 0 0 1-.059.651 1.03 1.03 0 0 1-.412.582 2.9 2.9 0 0 1-1.035.439 9.553 9.553 0 0 1-1.911.224q-.55.021-1.1 0-.4 1.661-.7 2.97t-.543 2.413q-.242 1.1-.439 2.077t-.4 1.963q-.2.989-.431 2.07t-.518 2.39q-.293 1.31-.69 2.932t-.92 3.7q.1 0 .46.013t.829.074q.469.058 1 .158a5.959 5.959 0 0 1 .97.265 2.717 2.717 0 0 1 .733.395.718.718 0 0 1 .3.547q.024.633-1.153 1.282l-1.125.043-1.825.069-2.267.086q-1.217.046-2.433.1c-.811.036-1.6.063-2.359.09-1.422.051-2.955.033-2.84-.932s1.8-1.5 1.8-1.5a15.712 15.712 0 0 1 1.58-.369q.837-.153 1.486-.223.441-1.994.892-3.989t.886-3.906q.436-1.911.861-3.7t.832-3.36q.408-1.57.792-2.883t.731-2.292q-.615.084-1.079.162t-.828.167q-.364.09-.686.192t-.667.229q-.346.126-.749.285c-.269.106-1.012.393-1.012.393" transform="translate(-785.187 -205.395)"/>
        </g>
        <path id="패스_927" data-name="패스 927" class="cls-1" d="M915.037 206.071s-5.109 15.671-5.636 20.447 3.365 3.393 3.365 3.393 1.308-.187 3.778-13.678l1.849-10.29s10.175 2.013 10.582-.563-3.713-4.569-14.965-2.586-7.336 7.869-5.022 7.553.6-2.767 3.049-3.591a9.32 9.32 0 0 1 3-.685z" transform="translate(-454.493 -28.74)"/>
    </g>
</svg>
