<svg id="그룹_1491" data-name="그룹 1491" xmlns="http://www.w3.org/2000/svg" width="18.618" height="21.974">
    <defs>
        <style>
            .cls-1{fill:#868686}
        </style>
    </defs>
    <path id="패스_8" data-name="패스 8" class="cls-1" d="M825.215 2708.9c-2.8 0-5.6.01-8.4-.015-.3 0-.871-.225-.866-.321a2.659 2.659 0 0 1 .359-1.363c.262-.366.886-.477 1.134-.846a5.463 5.463 0 0 0 .979-2.1 44 44 0 0 0 .465-5.41 6.375 6.375 0 0 1 4.924-6.381c.371-.1.513-.239.52-.606a.828.828 0 0 1 .885-.862.813.813 0 0 1 .873.87c.007.425.2.527.575.622a6.359 6.359 0 0 1 4.865 6.286 52.206 52.206 0 0 0 .485 5.472 3.421 3.421 0 0 0 1.975 2.833c.575.268.612.835.565 1.357-.04.448-.436.465-.809.464h-8.529z" transform="translate(-815.95 -2691)"/>
    <path id="패스_9" data-name="패스 9" class="cls-1" d="M836.279 2754.513h6.285a3.084 3.084 0 0 1-2.822 2.879 3.129 3.129 0 0 1-3.463-2.879z" transform="translate(-830.168 -2735.421)"/>
</svg>
