<svg xmlns="http://www.w3.org/2000/svg" width="15.259" height="11.868">
    <path data-name="Icon awesome-images" d="M12.716 12.423v.424a1.272 1.272 0 0 1-1.272 1.272H1.272A1.272 1.272 0 0 1 0 12.846V6.065a1.272 1.272 0 0 1 1.272-1.272H1.7V10.3a2.122 2.122 0 0 0 2.119 2.119zm2.543-2.123V3.522a1.272 1.272 0 0 0-1.272-1.272H3.815a1.272 1.272 0 0 0-1.272 1.272V10.3a1.272 1.272 0 0 0 1.272 1.272h10.172a1.272 1.272 0 0 0 1.272-1.272zM6.782 4.793A1.272 1.272 0 1 1 5.51 3.522a1.272 1.272 0 0 1 1.272 1.271zM4.239 8.608l1.47-1.471a.318.318 0 0 1 .45 0l1.047 1.047 3.59-3.59a.318.318 0 0 1 .45 0l2.318 2.318v2.967H4.239z" transform="translate(0 -2.25)" style="fill:#868686"/>
</svg>
