<svg xmlns="http://www.w3.org/2000/svg" width="89" height="89">
    <g data-name="그룹 1613">
        <g data-name="패스 935" style="fill:#4dd290">
            <path d="M65 88.5H24a23.422 23.422 0 0 1-16.617-6.883A23.422 23.422 0 0 1 .5 65V24A23.423 23.423 0 0 1 7.383 7.383 23.423 23.423 0 0 1 24 .5h41a23.422 23.422 0 0 1 16.617 6.883A23.422 23.422 0 0 1 88.5 24v41a23.422 23.422 0 0 1-6.883 16.617A23.422 23.422 0 0 1 65 88.5z" style="stroke:none"/>
            <path d="M24 1A22.924 22.924 0 0 0 7.737 7.737 22.924 22.924 0 0 0 1 24v41a22.924 22.924 0 0 0 6.737 16.263A22.924 22.924 0 0 0 24 88h41a22.924 22.924 0 0 0 16.263-6.737A22.924 22.924 0 0 0 88 65V24a22.924 22.924 0 0 0-6.737-16.263A22.924 22.924 0 0 0 65 1H24m0-1h41c13.255 0 24 10.745 24 24v41c0 13.255-10.745 24-24 24H24C10.745 89 0 78.255 0 65V24C0 10.745 10.745 0 24 0z" style="stroke:none;fill:#4dd290"/>
        </g>
        <path data-name="패스 936" d="M397.275 214.041c-2.617-.24-1.443-3.244-1.443-3.244a44.019 44.019 0 0 0 1.272-4.31 27.984 27.984 0 0 1-2.284 1.879 13.793 13.793 0 0 1-2.746 1.553 17.592 17.592 0 0 1-3.522 1.058 23.755 23.755 0 0 1-4.591.394 12.038 12.038 0 0 1-5.481-1.227 12.911 12.911 0 0 1-4.175-3.309 15 15 0 0 1-2.668-4.835 17.94 17.94 0 0 1-.934-5.8 29.8 29.8 0 0 1 .957-7.618 30.327 30.327 0 0 1 2.644-6.752 28.768 28.768 0 0 1 3.984-5.649 27.2 27.2 0 0 1 4.952-4.321 23.107 23.107 0 0 1 5.57-2.768 18.246 18.246 0 0 1 5.841-.979 10.042 10.042 0 0 1 3.342.54 6.957 6.957 0 0 1 2.678 1.688 7.917 7.917 0 0 1 1.778 2.9 12.216 12.216 0 0 1 .641 4.186 8.01 8.01 0 0 1-.225 1.879 7.656 7.656 0 0 1-.743 1.879 5.354 5.354 0 0 1-1.4 1.5 2.372 2.372 0 0 1-1.283.439 1.652 1.652 0 0 1-.878-.248 2.4 2.4 0 0 1-.7-.653 3.356 3.356 0 0 1-.461-.912 3.287 3.287 0 0 1-.169-1.047 2.62 2.62 0 0 1 .135-.833q.135-.405.281-.81t.281-.844a3.081 3.081 0 0 0 .135-.912 4.986 4.986 0 0 0-.99-3.376 3.163 3.163 0 0 0-2.476-1.125 10.947 10.947 0 0 0-3.837.754 16.258 16.258 0 0 0-3.95 2.183 21.471 21.471 0 0 0-3.68 3.511 23.908 23.908 0 0 0-3.072 4.76 27.982 27.982 0 0 0-2.1 5.908 29.651 29.651 0 0 0-.776 6.943 12.8 12.8 0 0 0 .574 4.04 7.81 7.81 0 0 0 1.632 2.87 6.513 6.513 0 0 0 2.588 1.711 9.922 9.922 0 0 0 3.444.563 21.411 21.411 0 0 0 6.549-.956 22.8 22.8 0 0 0 5.627-2.69q.18-.675.315-1.294a5.359 5.359 0 0 0 .135-1.137 2.616 2.616 0 0 0-.18-1.069 1.312 1.312 0 0 0-.484-.585 1.677 1.677 0 0 0-.72-.236 8.351 8.351 0 0 0-.889-.045 4.515 4.515 0 0 1-1.5-.225 3.671 3.671 0 0 1-1.092-.585 2.36 2.36 0 0 1-.675-.833 2.18 2.18 0 0 1-.225-.945 2.054 2.054 0 0 1 .214-.911 2.153 2.153 0 0 1 .664-.777 3.735 3.735 0 0 1 1.137-.551 5.437 5.437 0 0 1 1.609-.214 12.012 12.012 0 0 1 3.59.45 4.953 4.953 0 0 1 2.206 1.328 4.784 4.784 0 0 1 1.1 2.15 12.489 12.489 0 0 1 .3 2.892 50.523 50.523 0 0 1-.3 5.424 26.776 26.776 0 0 1-.979 5.514c-1.246 3.812-1.93 3.969-4.547 3.729z" transform="translate(-343.703 -146.113)" style="fill:#fff"/>
    </g>
</svg>
